<mxfile host="app.diagrams.net" modified="2023-03-01T12:51:38.838Z" agent="5.0 (Windows NT 10.0; Win64; x64) AppleWebKit/537.36 (KHTML, like Gecko) Chrome/110.0.0.0 Safari/537.36" etag="9sTPS-RqunyASsxuNsyA" version="20.8.23" type="github">
  <diagram name="Page-1" id="s-qsOOu7GwDKU33Kypw3">
    <mxGraphModel dx="1050" dy="549" grid="1" gridSize="10" guides="1" tooltips="1" connect="1" arrows="1" fold="1" page="1" pageScale="1" pageWidth="850" pageHeight="1100" math="0" shadow="0">
      <root>
        <mxCell id="0" />
        <mxCell id="1" parent="0" />
        <mxCell id="R1pL9hX8Iz8U6CTjcTA5-103" style="edgeStyle=orthogonalEdgeStyle;rounded=0;orthogonalLoop=1;jettySize=auto;html=1;entryX=0;entryY=0.5;entryDx=0;entryDy=0;" edge="1" parent="1" source="R1pL9hX8Iz8U6CTjcTA5-16" target="R1pL9hX8Iz8U6CTjcTA5-21">
          <mxGeometry relative="1" as="geometry" />
        </mxCell>
        <mxCell id="R1pL9hX8Iz8U6CTjcTA5-16" value="Customer Arrives at &lt;br&gt;Restaurant" style="html=1;dashed=0;whitespace=wrap;shape=mxgraph.dfd.start" vertex="1" parent="1">
          <mxGeometry x="20" y="180" width="170" height="40" as="geometry" />
        </mxCell>
        <mxCell id="R1pL9hX8Iz8U6CTjcTA5-23" value="" style="edgeStyle=orthogonalEdgeStyle;rounded=0;orthogonalLoop=1;jettySize=auto;html=1;" edge="1" parent="1" source="R1pL9hX8Iz8U6CTjcTA5-21" target="R1pL9hX8Iz8U6CTjcTA5-22">
          <mxGeometry relative="1" as="geometry" />
        </mxCell>
        <mxCell id="R1pL9hX8Iz8U6CTjcTA5-21" value="Customer" style="whiteSpace=wrap;html=1;dashed=0;" vertex="1" parent="1">
          <mxGeometry x="250" y="170" width="120" height="60" as="geometry" />
        </mxCell>
        <mxCell id="R1pL9hX8Iz8U6CTjcTA5-28" style="edgeStyle=orthogonalEdgeStyle;rounded=0;orthogonalLoop=1;jettySize=auto;html=1;entryX=0;entryY=0.5;entryDx=0;entryDy=0;" edge="1" parent="1" source="R1pL9hX8Iz8U6CTjcTA5-22" target="R1pL9hX8Iz8U6CTjcTA5-27">
          <mxGeometry relative="1" as="geometry" />
        </mxCell>
        <mxCell id="R1pL9hX8Iz8U6CTjcTA5-22" value="Checks for Reservation with reception" style="whiteSpace=wrap;html=1;dashed=0;" vertex="1" parent="1">
          <mxGeometry x="440" y="170" width="120" height="60" as="geometry" />
        </mxCell>
        <mxCell id="R1pL9hX8Iz8U6CTjcTA5-24" value="id&amp;nbsp; &amp;nbsp; &amp;nbsp; Booked reservation" style="html=1;dashed=0;whitespace=wrap;shape=mxgraph.dfd.dataStoreID;align=left;spacingLeft=3;points=[[0,0],[0.5,0],[1,0],[0,0.5],[1,0.5],[0,1],[0.5,1],[1,1]];" vertex="1" parent="1">
          <mxGeometry x="635" y="40" width="140" height="30" as="geometry" />
        </mxCell>
        <mxCell id="R1pL9hX8Iz8U6CTjcTA5-33" value="Yes" style="edgeStyle=orthogonalEdgeStyle;rounded=0;orthogonalLoop=1;jettySize=auto;html=1;" edge="1" parent="1" source="R1pL9hX8Iz8U6CTjcTA5-27" target="R1pL9hX8Iz8U6CTjcTA5-32">
          <mxGeometry relative="1" as="geometry" />
        </mxCell>
        <mxCell id="R1pL9hX8Iz8U6CTjcTA5-40" value="no" style="edgeStyle=orthogonalEdgeStyle;rounded=0;orthogonalLoop=1;jettySize=auto;html=1;entryX=0.5;entryY=0;entryDx=0;entryDy=0;" edge="1" parent="1" source="R1pL9hX8Iz8U6CTjcTA5-27" target="R1pL9hX8Iz8U6CTjcTA5-61">
          <mxGeometry relative="1" as="geometry">
            <mxPoint x="705" y="330" as="targetPoint" />
          </mxGeometry>
        </mxCell>
        <mxCell id="R1pL9hX8Iz8U6CTjcTA5-47" style="edgeStyle=orthogonalEdgeStyle;rounded=0;orthogonalLoop=1;jettySize=auto;html=1;entryX=0.5;entryY=1;entryDx=0;entryDy=0;" edge="1" parent="1" source="R1pL9hX8Iz8U6CTjcTA5-27" target="R1pL9hX8Iz8U6CTjcTA5-24">
          <mxGeometry relative="1" as="geometry" />
        </mxCell>
        <mxCell id="R1pL9hX8Iz8U6CTjcTA5-27" value="Does customer have reservation" style="shape=rhombus;html=1;dashed=0;whitespace=wrap;perimeter=rhombusPerimeter;" vertex="1" parent="1">
          <mxGeometry x="620" y="137.5" width="170" height="125" as="geometry" />
        </mxCell>
        <mxCell id="R1pL9hX8Iz8U6CTjcTA5-49" style="edgeStyle=orthogonalEdgeStyle;rounded=0;orthogonalLoop=1;jettySize=auto;html=1;entryX=0.5;entryY=1;entryDx=0;entryDy=0;" edge="1" parent="1" source="R1pL9hX8Iz8U6CTjcTA5-32" target="R1pL9hX8Iz8U6CTjcTA5-48">
          <mxGeometry relative="1" as="geometry" />
        </mxCell>
        <mxCell id="R1pL9hX8Iz8U6CTjcTA5-54" style="edgeStyle=orthogonalEdgeStyle;rounded=0;orthogonalLoop=1;jettySize=auto;html=1;entryX=0;entryY=0.5;entryDx=0;entryDy=0;" edge="1" parent="1" source="R1pL9hX8Iz8U6CTjcTA5-32" target="R1pL9hX8Iz8U6CTjcTA5-52">
          <mxGeometry relative="1" as="geometry" />
        </mxCell>
        <mxCell id="R1pL9hX8Iz8U6CTjcTA5-32" value="Customer Checks In&lt;br&gt;/Payment" style="whiteSpace=wrap;html=1;dashed=0;" vertex="1" parent="1">
          <mxGeometry x="900" y="170" width="120" height="60" as="geometry" />
        </mxCell>
        <mxCell id="R1pL9hX8Iz8U6CTjcTA5-44" value="Yes" style="edgeStyle=orthogonalEdgeStyle;rounded=0;orthogonalLoop=1;jettySize=auto;html=1;entryX=0;entryY=0.5;entryDx=0;entryDy=0;" edge="1" parent="1" target="R1pL9hX8Iz8U6CTjcTA5-50">
          <mxGeometry relative="1" as="geometry">
            <mxPoint x="777.1875" y="400" as="sourcePoint" />
            <mxPoint x="880" y="360" as="targetPoint" />
            <Array as="points">
              <mxPoint x="880" y="400" />
              <mxPoint x="880" y="400" />
            </Array>
          </mxGeometry>
        </mxCell>
        <mxCell id="R1pL9hX8Iz8U6CTjcTA5-46" value="no" style="edgeStyle=orthogonalEdgeStyle;rounded=0;orthogonalLoop=1;jettySize=auto;html=1;exitX=0;exitY=0.5;exitDx=0;exitDy=0;" edge="1" parent="1" source="R1pL9hX8Iz8U6CTjcTA5-61" target="R1pL9hX8Iz8U6CTjcTA5-45">
          <mxGeometry relative="1" as="geometry">
            <mxPoint x="622.5" y="410" as="sourcePoint" />
            <Array as="points">
              <mxPoint x="520" y="400" />
              <mxPoint x="520" y="400" />
            </Array>
          </mxGeometry>
        </mxCell>
        <mxCell id="R1pL9hX8Iz8U6CTjcTA5-45" value="Customer is&amp;nbsp; informed of no spaces" style="whiteSpace=wrap;html=1;dashed=0;" vertex="1" parent="1">
          <mxGeometry x="370" y="370" width="120" height="60" as="geometry" />
        </mxCell>
        <mxCell id="R1pL9hX8Iz8U6CTjcTA5-48" value="Available reservation" style="html=1;dashed=0;whitespace=wrap;shape=partialRectangle;right=0;left=0;" vertex="1" parent="1">
          <mxGeometry x="895" y="40" width="130" height="30" as="geometry" />
        </mxCell>
        <mxCell id="R1pL9hX8Iz8U6CTjcTA5-55" style="edgeStyle=orthogonalEdgeStyle;rounded=0;orthogonalLoop=1;jettySize=auto;html=1;entryX=0.5;entryY=1;entryDx=0;entryDy=0;" edge="1" parent="1" source="R1pL9hX8Iz8U6CTjcTA5-50" target="R1pL9hX8Iz8U6CTjcTA5-52">
          <mxGeometry relative="1" as="geometry" />
        </mxCell>
        <mxCell id="R1pL9hX8Iz8U6CTjcTA5-50" value="Customer details are registered" style="ellipse;whiteSpace=wrap;html=1;dashed=0;" vertex="1" parent="1">
          <mxGeometry x="1120" y="360" width="80" height="80" as="geometry" />
        </mxCell>
        <mxCell id="R1pL9hX8Iz8U6CTjcTA5-60" style="edgeStyle=orthogonalEdgeStyle;rounded=0;orthogonalLoop=1;jettySize=auto;html=1;entryX=0;entryY=0.5;entryDx=0;entryDy=0;" edge="1" parent="1" source="R1pL9hX8Iz8U6CTjcTA5-52" target="R1pL9hX8Iz8U6CTjcTA5-56">
          <mxGeometry relative="1" as="geometry" />
        </mxCell>
        <mxCell id="R1pL9hX8Iz8U6CTjcTA5-52" value="Customer is seated" style="whiteSpace=wrap;html=1;dashed=0;" vertex="1" parent="1">
          <mxGeometry x="1100" y="170" width="120" height="60" as="geometry" />
        </mxCell>
        <mxCell id="R1pL9hX8Iz8U6CTjcTA5-58" style="edgeStyle=orthogonalEdgeStyle;rounded=0;orthogonalLoop=1;jettySize=auto;html=1;entryX=0.5;entryY=1;entryDx=0;entryDy=0;" edge="1" parent="1" source="R1pL9hX8Iz8U6CTjcTA5-56" target="R1pL9hX8Iz8U6CTjcTA5-57">
          <mxGeometry relative="1" as="geometry" />
        </mxCell>
        <mxCell id="R1pL9hX8Iz8U6CTjcTA5-63" style="edgeStyle=orthogonalEdgeStyle;rounded=0;orthogonalLoop=1;jettySize=auto;html=1;entryX=0;entryY=0.5;entryDx=0;entryDy=0;" edge="1" parent="1" source="R1pL9hX8Iz8U6CTjcTA5-56" target="R1pL9hX8Iz8U6CTjcTA5-62">
          <mxGeometry relative="1" as="geometry" />
        </mxCell>
        <mxCell id="R1pL9hX8Iz8U6CTjcTA5-56" value="Customer selects menu" style="whiteSpace=wrap;html=1;dashed=0;" vertex="1" parent="1">
          <mxGeometry x="1275" y="170" width="120" height="60" as="geometry" />
        </mxCell>
        <mxCell id="R1pL9hX8Iz8U6CTjcTA5-57" value="Available Menu" style="html=1;dashed=0;whitespace=wrap;shape=partialRectangle;right=0;left=0;" vertex="1" parent="1">
          <mxGeometry x="1270" y="40" width="130" height="30" as="geometry" />
        </mxCell>
        <mxCell id="R1pL9hX8Iz8U6CTjcTA5-61" value="Check whether space is available" style="shape=hexagon;perimeter=hexagonPerimeter2;whiteSpace=wrap;html=1;size=0.25" vertex="1" parent="1">
          <mxGeometry x="627.5" y="352.5" width="155" height="95" as="geometry" />
        </mxCell>
        <mxCell id="R1pL9hX8Iz8U6CTjcTA5-68" value="no" style="edgeStyle=orthogonalEdgeStyle;rounded=0;orthogonalLoop=1;jettySize=auto;html=1;" edge="1" parent="1" source="R1pL9hX8Iz8U6CTjcTA5-62" target="R1pL9hX8Iz8U6CTjcTA5-67">
          <mxGeometry relative="1" as="geometry" />
        </mxCell>
        <mxCell id="R1pL9hX8Iz8U6CTjcTA5-71" value="" style="edgeStyle=orthogonalEdgeStyle;rounded=0;orthogonalLoop=1;jettySize=auto;html=1;" edge="1" parent="1" source="R1pL9hX8Iz8U6CTjcTA5-62" target="R1pL9hX8Iz8U6CTjcTA5-70">
          <mxGeometry relative="1" as="geometry" />
        </mxCell>
        <mxCell id="R1pL9hX8Iz8U6CTjcTA5-62" value="Waiter check whether menu is available" style="shape=hexagon;perimeter=hexagonPerimeter2;whiteSpace=wrap;html=1;size=0.25" vertex="1" parent="1">
          <mxGeometry x="1490" y="147.5" width="180" height="105" as="geometry" />
        </mxCell>
        <mxCell id="R1pL9hX8Iz8U6CTjcTA5-67" value="Informs Cutomer" style="whiteSpace=wrap;html=1;" vertex="1" parent="1">
          <mxGeometry x="1520" y="355" width="120" height="60" as="geometry" />
        </mxCell>
        <mxCell id="R1pL9hX8Iz8U6CTjcTA5-73" style="edgeStyle=orthogonalEdgeStyle;rounded=0;orthogonalLoop=1;jettySize=auto;html=1;" edge="1" parent="1" source="R1pL9hX8Iz8U6CTjcTA5-70" target="R1pL9hX8Iz8U6CTjcTA5-72">
          <mxGeometry relative="1" as="geometry" />
        </mxCell>
        <mxCell id="R1pL9hX8Iz8U6CTjcTA5-78" style="edgeStyle=orthogonalEdgeStyle;rounded=0;orthogonalLoop=1;jettySize=auto;html=1;" edge="1" parent="1" source="R1pL9hX8Iz8U6CTjcTA5-70" target="R1pL9hX8Iz8U6CTjcTA5-77">
          <mxGeometry relative="1" as="geometry" />
        </mxCell>
        <mxCell id="R1pL9hX8Iz8U6CTjcTA5-70" value="Takes the order to kitchen" style="whiteSpace=wrap;html=1;" vertex="1" parent="1">
          <mxGeometry x="1780" y="170" width="120" height="60" as="geometry" />
        </mxCell>
        <mxCell id="R1pL9hX8Iz8U6CTjcTA5-76" value="" style="edgeStyle=orthogonalEdgeStyle;rounded=0;orthogonalLoop=1;jettySize=auto;html=1;entryX=0;entryY=0.5;entryDx=0;entryDy=0;" edge="1" parent="1" source="R1pL9hX8Iz8U6CTjcTA5-72" target="R1pL9hX8Iz8U6CTjcTA5-89">
          <mxGeometry relative="1" as="geometry">
            <mxPoint x="2210" y="200" as="targetPoint" />
          </mxGeometry>
        </mxCell>
        <mxCell id="R1pL9hX8Iz8U6CTjcTA5-72" value="Order is prepared&amp;nbsp;&lt;br&gt;by the chef&amp;nbsp;" style="ellipse;shape=doubleEllipse;html=1;dashed=0;whitespace=wrap;aspect=fixed;" vertex="1" parent="1">
          <mxGeometry x="1995" y="135" width="130" height="130" as="geometry" />
        </mxCell>
        <mxCell id="R1pL9hX8Iz8U6CTjcTA5-82" value="" style="edgeStyle=orthogonalEdgeStyle;rounded=0;orthogonalLoop=1;jettySize=auto;html=1;exitX=1;exitY=0.5;exitDx=0;exitDy=0;" edge="1" parent="1" source="R1pL9hX8Iz8U6CTjcTA5-89" target="R1pL9hX8Iz8U6CTjcTA5-81">
          <mxGeometry relative="1" as="geometry">
            <mxPoint x="2320" y="200" as="sourcePoint" />
          </mxGeometry>
        </mxCell>
        <mxCell id="R1pL9hX8Iz8U6CTjcTA5-79" style="edgeStyle=orthogonalEdgeStyle;rounded=0;orthogonalLoop=1;jettySize=auto;html=1;" edge="1" parent="1" source="R1pL9hX8Iz8U6CTjcTA5-77" target="R1pL9hX8Iz8U6CTjcTA5-72">
          <mxGeometry relative="1" as="geometry" />
        </mxCell>
        <mxCell id="R1pL9hX8Iz8U6CTjcTA5-80" value="OrderID" style="edgeLabel;html=1;align=center;verticalAlign=middle;resizable=0;points=[];" vertex="1" connectable="0" parent="R1pL9hX8Iz8U6CTjcTA5-79">
          <mxGeometry x="-0.2336" y="1" relative="1" as="geometry">
            <mxPoint as="offset" />
          </mxGeometry>
        </mxCell>
        <mxCell id="R1pL9hX8Iz8U6CTjcTA5-77" value="Customer order" style="html=1;dashed=0;whitespace=wrap;shape=partialRectangle;right=0;" vertex="1" parent="1">
          <mxGeometry x="1790" y="40" width="100" height="30" as="geometry" />
        </mxCell>
        <mxCell id="R1pL9hX8Iz8U6CTjcTA5-84" value="" style="edgeStyle=orthogonalEdgeStyle;rounded=0;orthogonalLoop=1;jettySize=auto;html=1;" edge="1" parent="1" source="R1pL9hX8Iz8U6CTjcTA5-81" target="R1pL9hX8Iz8U6CTjcTA5-83">
          <mxGeometry relative="1" as="geometry" />
        </mxCell>
        <mxCell id="R1pL9hX8Iz8U6CTjcTA5-81" value="Customer Eats" style="whiteSpace=wrap;html=1;dashed=0;" vertex="1" parent="1">
          <mxGeometry x="2410" y="170" width="120" height="60" as="geometry" />
        </mxCell>
        <mxCell id="R1pL9hX8Iz8U6CTjcTA5-92" style="edgeStyle=orthogonalEdgeStyle;rounded=0;orthogonalLoop=1;jettySize=auto;html=1;entryX=0.5;entryY=0;entryDx=0;entryDy=0;" edge="1" parent="1" source="R1pL9hX8Iz8U6CTjcTA5-83" target="R1pL9hX8Iz8U6CTjcTA5-24">
          <mxGeometry relative="1" as="geometry">
            <Array as="points">
              <mxPoint x="2670" y="20" />
              <mxPoint x="705" y="20" />
            </Array>
          </mxGeometry>
        </mxCell>
        <mxCell id="R1pL9hX8Iz8U6CTjcTA5-94" value="" style="edgeStyle=orthogonalEdgeStyle;rounded=0;orthogonalLoop=1;jettySize=auto;html=1;" edge="1" parent="1" source="R1pL9hX8Iz8U6CTjcTA5-83" target="R1pL9hX8Iz8U6CTjcTA5-93">
          <mxGeometry relative="1" as="geometry" />
        </mxCell>
        <mxCell id="R1pL9hX8Iz8U6CTjcTA5-83" value="Payments&lt;br&gt;Cash/Card" style="whiteSpace=wrap;html=1;dashed=0;" vertex="1" parent="1">
          <mxGeometry x="2610" y="170" width="120" height="60" as="geometry" />
        </mxCell>
        <mxCell id="R1pL9hX8Iz8U6CTjcTA5-89" value="&lt;br&gt;&lt;span style=&quot;color: rgb(0, 0, 0); font-family: Helvetica; font-size: 12px; font-style: normal; font-variant-ligatures: normal; font-variant-caps: normal; font-weight: 400; letter-spacing: normal; orphans: 2; text-align: center; text-indent: 0px; text-transform: none; widows: 2; word-spacing: 0px; -webkit-text-stroke-width: 0px; background-color: rgb(251, 251, 251); text-decoration-thickness: initial; text-decoration-style: initial; text-decoration-color: initial; float: none; display: inline !important;&quot;&gt;Customer is Presented &lt;br&gt;with the order&lt;/span&gt;&lt;br&gt;" style="shape=parallelogram;perimeter=parallelogramPerimeter;whiteSpace=wrap;html=1;dashed=0;" vertex="1" parent="1">
          <mxGeometry x="2170" y="145" width="170" height="110" as="geometry" />
        </mxCell>
        <mxCell id="R1pL9hX8Iz8U6CTjcTA5-96" value="" style="edgeStyle=orthogonalEdgeStyle;rounded=0;orthogonalLoop=1;jettySize=auto;html=1;" edge="1" parent="1" source="R1pL9hX8Iz8U6CTjcTA5-93" target="R1pL9hX8Iz8U6CTjcTA5-95">
          <mxGeometry relative="1" as="geometry" />
        </mxCell>
        <mxCell id="R1pL9hX8Iz8U6CTjcTA5-97" value="Invalid" style="edgeLabel;html=1;align=center;verticalAlign=middle;resizable=0;points=[];" vertex="1" connectable="0" parent="R1pL9hX8Iz8U6CTjcTA5-96">
          <mxGeometry x="0.2089" y="3" relative="1" as="geometry">
            <mxPoint as="offset" />
          </mxGeometry>
        </mxCell>
        <mxCell id="R1pL9hX8Iz8U6CTjcTA5-99" value="valid" style="edgeStyle=orthogonalEdgeStyle;rounded=0;orthogonalLoop=1;jettySize=auto;html=1;" edge="1" parent="1" source="R1pL9hX8Iz8U6CTjcTA5-93" target="R1pL9hX8Iz8U6CTjcTA5-98">
          <mxGeometry relative="1" as="geometry" />
        </mxCell>
        <mxCell id="R1pL9hX8Iz8U6CTjcTA5-93" value="Checks whether cash or card is invalid" style="shape=hexagon;perimeter=hexagonPerimeter2;whiteSpace=wrap;html=1;fixedSize=1;dashed=0;" vertex="1" parent="1">
          <mxGeometry x="2810" y="160" width="120" height="80" as="geometry" />
        </mxCell>
        <mxCell id="R1pL9hX8Iz8U6CTjcTA5-95" value="Informs Customer /Asks to review" style="whiteSpace=wrap;html=1;dashed=0;" vertex="1" parent="1">
          <mxGeometry x="2810" y="330" width="120" height="60" as="geometry" />
        </mxCell>
        <mxCell id="R1pL9hX8Iz8U6CTjcTA5-100" style="edgeStyle=orthogonalEdgeStyle;rounded=0;orthogonalLoop=1;jettySize=auto;html=1;" edge="1" parent="1" source="R1pL9hX8Iz8U6CTjcTA5-98" target="R1pL9hX8Iz8U6CTjcTA5-101">
          <mxGeometry relative="1" as="geometry">
            <mxPoint x="3240" y="200" as="targetPoint" />
          </mxGeometry>
        </mxCell>
        <mxCell id="R1pL9hX8Iz8U6CTjcTA5-98" value="Payment confirmed" style="whiteSpace=wrap;html=1;dashed=0;" vertex="1" parent="1">
          <mxGeometry x="3010" y="170" width="120" height="60" as="geometry" />
        </mxCell>
        <mxCell id="R1pL9hX8Iz8U6CTjcTA5-101" value="Customer Leaves" style="shape=ellipse;html=1;dashed=0;whitespace=wrap;aspect=fixed;strokeWidth=5;perimeter=ellipsePerimeter;" vertex="1" parent="1">
          <mxGeometry x="3210" y="120" width="160" height="160" as="geometry" />
        </mxCell>
      </root>
    </mxGraphModel>
  </diagram>
</mxfile>
